<svg width="11" height="11" viewBox="0 0 11 11" fill="none" xmlns="http://www.w3.org/2000/svg">
<path d="M10.5831 4.08249C10.5023 3.82968 10.2607 3.65592 9.92034 3.60572L7.22134 3.20734L6.01432 0.723356C5.86209 0.410124 5.62473 0.230469 5.36304 0.230469C5.10136 0.230469 4.864 0.410124 4.71179 0.723356L3.50481 3.20732L0.805766 3.6057C0.4654 3.6559 0.223831 3.82968 0.142952 4.08245C0.0620945 4.33523 0.156975 4.62002 0.403219 4.86383L2.35625 6.79731L1.8952 9.52757C1.83457 9.88669 1.93753 10.1015 2.03461 10.2184C2.14814 10.3551 2.31377 10.4305 2.50099 10.4305C2.64254 10.4305 2.79328 10.3883 2.94895 10.3052L5.36304 9.0161L7.77714 10.3051C7.93285 10.3883 8.08357 10.4304 8.22514 10.4304H8.22518C8.41242 10.4304 8.57805 10.3551 8.69159 10.2183C8.78864 10.1015 8.89162 9.88667 8.83098 9.52752L8.36986 6.79733L10.3229 4.86387C10.5692 4.62006 10.664 4.33525 10.5831 4.08249Z" fill="#FF8412"/>
</svg>
